<svg height="512pt" viewBox="-2 0 512 512" width="512pt" xmlns="http://www.w3.org/2000/svg"><path d="m435.753906 131.359375c-4.4375-73.289063-65.269531-131.359375-139.675781-131.359375-60.007813 0-111.1875 37.773438-131.078125 90.839844-51.675781.625-93.378906 42.683594-93.378906 94.507812 0 52.214844 42.328125 94.542969 94.539062 94.542969h266.996094c41.035156 0 74.296875-33.265625 74.296875-74.296875 0-40.164062-31.871094-72.863281-71.699219-74.234375zm0 0" fill="#6d6d6d"/><path d="m507.457031 205.589844c0 41.03125-33.269531 74.304687-74.300781 74.304687h-5.757812c5.386718-10.285156 8.4375-21.996093 8.4375-34.40625 0-40.160156-31.871094-72.863281-71.703126-74.238281-4.4375-73.285156-65.273437-131.363281-139.679687-131.363281-10.035156 0-19.816406 1.058593-29.242187 3.0625 25.453124-26.46875 61.230468-42.94531275 100.863281-42.94531275 74.410156 0 135.246093 58.06249975 139.683593 131.36328175 39.832032 1.359374 71.699219 34.0625 71.699219 74.222656zm0 0" fill="#565656"/><path d="m398.710938 122.902344c-3.492188 0-6.65625-2.378906-7.507813-5.921875-1.296875-5.398438-3.070313-10.71875-5.277344-15.816407-1.695312-3.917968.105469-8.464843 4.023438-10.160156 3.914062-1.695312 8.464843.109375 10.15625 4.023438 2.558593 5.910156 4.617187 12.082031 6.121093 18.339844 1 4.152343-1.554687 8.324218-5.707031 9.320312-.605469.144531-1.210937.214844-1.808593.214844zm0 0" fill="#6d6d6d"/><path d="m372.269531 74.644531c-2.03125 0-4.054687-.796875-5.574219-2.378906-18.667968-19.449219-43.746093-30.160156-70.617187-30.160156-4.265625 0-7.726563-3.460938-7.726563-7.726563 0-4.269531 3.460938-7.726562 7.726563-7.726562 31.117187 0 60.15625 12.398437 81.765625 34.914062 2.957031 3.078125 2.855469 7.96875-.222656 10.925782-1.5 1.4375-3.425782 2.152343-5.351563 2.152343zm0 0" fill="#6d6d6d"/><path d="m51.261719 173.703125c3.171875-52.394531 46.660156-93.910156 99.855469-93.910156 42.902343 0 79.488281 27.003906 93.707031 64.941406 36.945312.445313 66.761719 30.519531 66.761719 67.566406 0 37.328125-30.261719 67.589844-67.589844 67.589844-15.625 0-174.824219 0-190.878906 0-29.335938 0-53.117188-23.78125-53.117188-53.117187 0-28.714844 22.785156-52.089844 51.261719-53.070313zm0 0" fill="#a09d9c"/><path d="m311.585938 212.304688c0 37.007812-29.757813 67.070312-66.65625 67.570312 11.0625-12.039062 17.808593-28.082031 17.808593-45.707031 0-37.046875-29.808593-67.117188-66.761719-67.566407-14.21875-37.929687-50.804687-64.945312-93.710937-64.945312-5.070313 0-10.046875.382812-14.917969 1.109375 17.304688-14.351563 39.527344-22.96875 63.765625-22.96875 42.90625 0 79.492188 26.996094 93.710938 64.941406 36.953125.449219 66.761719 30.507813 66.761719 67.566407zm0 0" fill="#82807f"/><path d="m108.179688 350.652344c0 11.65625-9.449219 21.105468-21.105469 21.105468s-21.105469-9.449218-21.105469-21.105468c0-7.648438 9.089844-22.664063 15.335938-32.082032 2.742187-4.125 8.796874-4.125 11.535156 0 6.25 9.417969 15.339844 24.433594 15.339844 32.082032zm0 0" fill="#a0ecff"/><path d="m108.175781 350.652344c0 11.652344-9.441406 21.105468-21.101562 21.105468-2.921875 0-5.707031-.597656-8.238281-1.671874 7.566406-3.203126 12.871093-10.703126 12.871093-19.433594 0-6.6875-6.945312-19.003906-12.863281-28.289063.84375-1.332031 1.671875-2.597656 2.453125-3.78125 2.742187-4.132812 8.800781-4.144531 11.542969-.011719 6.25 9.417969 15.335937 24.433594 15.335937 32.082032zm0 0" fill="#60daff"/><path d="m203.410156 350.652344c0 11.65625-9.449218 21.105468-21.105468 21.105468s-21.105469-9.449218-21.105469-21.105468c0-7.648438 9.089843-22.664063 15.335937-32.082032 2.742188-4.125 8.796875-4.125 11.535156 0 6.25 9.417969 15.339844 24.433594 15.339844 32.082032zm0 0" fill="#a0ecff"/><path d="m203.40625 350.652344c0 11.652344-9.441406 21.105468-21.101562 21.105468-2.921876 0-5.703126-.597656-8.238282-1.671874 7.566406-3.203126 12.871094-10.703126 12.871094-19.433594 0-6.6875-6.945312-19.003906-12.863281-28.289063.847656-1.332031 1.671875-2.597656 2.453125-3.78125 2.742187-4.132812 8.800781-4.144531 11.542968-.011719 6.25 9.417969 15.335938 24.433594 15.335938 32.082032zm0 0" fill="#60daff"/><path d="m298.640625 350.652344c0 11.65625-9.449219 21.105468-21.105469 21.105468s-21.105468-9.449218-21.105468-21.105468c0-7.648438 9.089843-22.664063 15.339843-32.082032 2.738281-4.125 8.792969-4.125 11.53125 0 6.253907 9.417969 15.339844 24.433594 15.339844 32.082032zm0 0" fill="#a0ecff"/><path d="m298.640625 350.652344c0 11.652344-9.445313 21.105468-21.105469 21.105468-2.921875 0-5.703125-.597656-8.238281-1.671874 7.566406-3.203126 12.871094-10.703126 12.871094-19.433594 0-6.6875-6.945313-19.003906-12.863281-28.289063.847656-1.332031 1.671874-2.597656 2.457031-3.78125 2.738281-4.132812 8.800781-4.144531 11.542969-.011719 6.246093 9.417969 15.335937 24.433594 15.335937 32.082032zm0 0" fill="#60daff"/><path d="m393.871094 350.652344c0 11.65625-9.449219 21.105468-21.105469 21.105468s-21.105469-9.449218-21.105469-21.105468c0-7.648438 9.089844-22.664063 15.339844-32.082032 2.738281-4.125 8.796875-4.125 11.53125 0 6.253906 9.417969 15.339844 24.433594 15.339844 32.082032zm0 0" fill="#a0ecff"/><path d="m393.871094 350.652344c0 11.652344-9.445313 21.105468-21.105469 21.105468-2.921875 0-5.703125-.597656-8.238281-1.671874 7.570312-3.203126 12.871094-10.703126 12.871094-19.433594 0-6.6875-6.945313-19.003906-12.863282-28.289063.847656-1.332031 1.675782-2.597656 2.457032-3.78125 2.738281-4.132812 8.800781-4.144531 11.542968-.011719 6.246094 9.417969 15.335938 24.433594 15.335938 32.082032zm0 0" fill="#60daff"/><path d="m108.179688 490.894531c0 11.65625-9.449219 21.105469-21.105469 21.105469s-21.105469-9.449219-21.105469-21.105469c0-7.648437 9.089844-22.660156 15.335938-32.078125 2.742187-4.128906 8.796874-4.128906 11.535156 0 6.25 9.417969 15.339844 24.429688 15.339844 32.078125zm0 0" fill="#a0ecff"/><path d="m108.175781 490.898438c0 11.652343-9.441406 21.101562-21.101562 21.101562-2.921875 0-5.707031-.59375-8.238281-1.667969 7.566406-3.207031 12.871093-10.703125 12.871093-19.4375 0-6.6875-6.945312-19.003906-12.863281-28.289062.84375-1.328125 1.671875-2.597657 2.453125-3.777344 2.742187-4.136719 8.800781-4.148437 11.542969-.015625 6.25 9.421875 15.335937 24.433594 15.335937 32.085938zm0 0" fill="#60daff"/><path d="m203.410156 490.894531c0 11.65625-9.449218 21.105469-21.105468 21.105469s-21.105469-9.449219-21.105469-21.105469c0-7.648437 9.089843-22.660156 15.335937-32.078125 2.742188-4.128906 8.796875-4.128906 11.535156 0 6.25 9.417969 15.339844 24.429688 15.339844 32.078125zm0 0" fill="#a0ecff"/><path d="m203.40625 490.898438c0 11.652343-9.441406 21.101562-21.101562 21.101562-2.921876 0-5.703126-.59375-8.238282-1.667969 7.566406-3.207031 12.871094-10.703125 12.871094-19.4375 0-6.6875-6.945312-19.003906-12.863281-28.289062.847656-1.328125 1.671875-2.597657 2.453125-3.777344 2.742187-4.136719 8.800781-4.148437 11.542968-.015625 6.25 9.421875 15.335938 24.433594 15.335938 32.085938zm0 0" fill="#60daff"/><path d="m298.640625 490.894531c0 11.65625-9.449219 21.105469-21.105469 21.105469s-21.105468-9.449219-21.105468-21.105469c0-7.648437 9.089843-22.660156 15.339843-32.078125 2.738281-4.128906 8.792969-4.128906 11.53125 0 6.253907 9.417969 15.339844 24.429688 15.339844 32.078125zm0 0" fill="#a0ecff"/><path d="m298.640625 490.898438c0 11.652343-9.445313 21.101562-21.105469 21.101562-2.921875 0-5.703125-.59375-8.238281-1.667969 7.566406-3.207031 12.871094-10.703125 12.871094-19.4375 0-6.6875-6.945313-19.003906-12.863281-28.289062.847656-1.328125 1.671874-2.597657 2.457031-3.777344 2.738281-4.136719 8.800781-4.148437 11.542969-.015625 6.246093 9.421875 15.335937 24.433594 15.335937 32.085938zm0 0" fill="#60daff"/><path d="m393.871094 490.894531c0 11.65625-9.449219 21.105469-21.105469 21.105469s-21.105469-9.449219-21.105469-21.105469c0-7.648437 9.089844-22.660156 15.339844-32.078125 2.738281-4.128906 8.796875-4.128906 11.53125 0 6.253906 9.417969 15.339844 24.429688 15.339844 32.078125zm0 0" fill="#a0ecff"/><path d="m393.871094 490.898438c0 11.652343-9.445313 21.101562-21.105469 21.101562-2.921875 0-5.703125-.59375-8.238281-1.667969 7.570312-3.207031 12.871094-10.703125 12.871094-19.4375 0-6.6875-6.945313-19.003906-12.863282-28.289062.847656-1.328125 1.675782-2.597657 2.457032-3.777344 2.738281-4.136719 8.800781-4.148437 11.542968-.015625 6.246094 9.421875 15.335938 24.433594 15.335938 32.085938zm0 0" fill="#60daff"/><path d="m155.796875 419.960938c0 11.65625-9.449219 21.105468-21.105469 21.105468s-21.105468-9.449218-21.105468-21.105468c0-7.648438 9.089843-22.664063 15.335937-32.082032 2.738281-4.125 8.796875-4.125 11.535156 0 6.25 9.417969 15.339844 24.433594 15.339844 32.082032zm0 0" fill="#a0ecff"/><path d="m155.792969 419.960938c0 11.652343-9.445313 21.105468-21.105469 21.105468-2.921875 0-5.703125-.597656-8.238281-1.671875 7.570312-3.203125 12.871093-10.703125 12.871093-19.433593 0-6.6875-6.941406-19.003907-12.863281-28.289063.847657-1.332031 1.675781-2.597656 2.457031-3.78125 2.738282-4.132813 8.800782-4.144531 11.542969-.011719 6.246094 9.417969 15.335938 24.429688 15.335938 32.082032zm0 0" fill="#60daff"/><path d="m251.027344 419.960938c0 11.65625-9.449219 21.105468-21.105469 21.105468s-21.105469-9.449218-21.105469-21.105468c0-7.648438 9.089844-22.664063 15.335938-32.082032 2.738281-4.125 8.796875-4.125 11.535156 0 6.25 9.417969 15.339844 24.433594 15.339844 32.082032zm0 0" fill="#a0ecff"/><path d="m251.023438 419.960938c0 11.652343-9.445313 21.105468-21.101563 21.105468-2.925781 0-5.707031-.597656-8.242187-1.671875 7.570312-3.203125 12.871093-10.703125 12.871093-19.433593 0-6.6875-6.941406-19.003907-12.863281-28.289063.847656-1.332031 1.675781-2.597656 2.457031-3.78125 2.738281-4.132813 8.800781-4.144531 11.542969-.011719 6.246094 9.417969 15.335938 24.429688 15.335938 32.082032zm0 0" fill="#60daff"/><path d="m346.257812 419.960938c0 11.65625-9.449218 21.105468-21.105468 21.105468s-21.105469-9.449218-21.105469-21.105468c0-7.648438 9.089844-22.664063 15.335937-32.082032 2.738282-4.125 8.796876-4.125 11.535157 0 6.25 9.417969 15.339843 24.433594 15.339843 32.082032zm0 0" fill="#a0ecff"/><path d="m346.253906 419.960938c0 11.652343-9.445312 21.105468-21.101562 21.105468-2.921875 0-5.707032-.597656-8.242188-1.671875 7.570313-3.203125 12.871094-10.703125 12.871094-19.433593 0-6.6875-6.941406-19.003907-12.863281-28.289063.847656-1.332031 1.675781-2.597656 2.457031-3.78125 2.738281-4.132813 8.800781-4.144531 11.542969-.011719 6.246093 9.417969 15.335937 24.429688 15.335937 32.082032zm0 0" fill="#60daff"/><path d="m441.488281 419.960938c0 11.65625-9.449219 21.105468-21.105469 21.105468s-21.105468-9.449218-21.105468-21.105468c0-7.648438 9.089844-22.664063 15.335937-32.082032 2.742188-4.125 8.796875-4.125 11.535157 0 6.25 9.417969 15.339843 24.433594 15.339843 32.082032zm0 0" fill="#a0ecff"/><path d="m441.484375 419.960938c0 11.652343-9.445313 21.105468-21.101563 21.105468-2.921874 0-5.707031-.597656-8.238281-1.671875 7.566407-3.203125 12.871094-10.703125 12.871094-19.433593 0-6.6875-6.945313-19.003907-12.867187-28.289063.847656-1.332031 1.675781-2.597656 2.457031-3.78125 2.742187-4.132813 8.800781-4.144531 11.542969-.011719 6.25 9.417969 15.335937 24.429688 15.335937 32.082032zm0 0" fill="#60daff"/></svg>