<?xml version="1.0" encoding="iso-8859-1"?>
<!-- Generator: Adobe Illustrator 19.0.0, SVG Export Plug-In . SVG Version: 6.00 Build 0)  -->
<svg version="1.1" id="Layer_1" xmlns="http://www.w3.org/2000/svg" xmlns:xlink="http://www.w3.org/1999/xlink" x="0px" y="0px"
	 viewBox="0 0 511.999 511.999" style="enable-background:new 0 0 511.999 511.999;" xml:space="preserve">
<path style="fill:#319FBC;" d="M511.999,230.469c-36.574,0-36.574-33.536-73.147-33.536s-36.574,33.536-73.147,33.536
	c-36.572,0-36.572-33.536-73.144-33.536s-36.571,33.536-73.141,33.536c-36.569,0-36.569-33.536-73.138-33.536
	c-36.57,0-36.57,33.536-73.141,33.536S36.57,196.933,0,196.933v84.596c36.571,0,36.571,33.536,73.141,33.536
	s36.57-33.536,73.141-33.536c36.569,0,36.569,33.536,73.138,33.536c36.571,0,36.571-33.536,73.141-33.536
	c36.572,0,36.572,33.536,73.144,33.536c36.574,0,36.574-33.536,73.147-33.536s36.574,33.536,73.147,33.536"/>
<path style="fill:#2690A8;" d="M511.999,145.873c-36.574,0-36.574-33.536-73.147-33.536s-36.574,33.536-73.147,33.536
	c-36.572,0-36.572-33.536-73.144-33.536s-36.571,33.536-73.141,33.536c-36.569,0-36.569-33.536-73.138-33.536
	c-36.57,0-36.57,33.536-73.141,33.536S36.57,112.337,0,112.337v84.596c36.571,0,36.571,33.536,73.141,33.536
	s36.57-33.536,73.141-33.536c36.569,0,36.569,33.536,73.138,33.536c36.571,0,36.571-33.536,73.141-33.536
	c36.572,0,36.572,33.536,73.144,33.536c36.574,0,36.574-33.536,73.147-33.536s36.574,33.536,73.147,33.536"/>
<path style="fill:#40B3DB;" d="M511.999,315.066c-36.574,0-36.574-33.536-73.147-33.536s-36.574,33.536-73.147,33.536
	c-36.572,0-36.572-33.536-73.144-33.536s-36.571,33.536-73.141,33.536c-36.569,0-36.569-33.536-73.138-33.536
	c-36.57,0-36.57,33.536-73.141,33.536S36.57,281.529,0,281.529v84.596c36.571,0,36.571,33.536,73.141,33.536
	s36.57-33.536,73.141-33.536c36.569,0,36.569,33.536,73.138,33.536c36.571,0,36.571-33.536,73.141-33.536
	c36.572,0,36.572,33.536,73.144,33.536c36.574,0,36.574-33.536,73.147-33.536s36.574,33.536,73.147,33.536"/>
<g>
</g>
<g>
</g>
<g>
</g>
<g>
</g>
<g>
</g>
<g>
</g>
<g>
</g>
<g>
</g>
<g>
</g>
<g>
</g>
<g>
</g>
<g>
</g>
<g>
</g>
<g>
</g>
<g>
</g>
</svg>
